<mxfile host="app.diagrams.net" modified="2022-05-27T09:29:52.179Z" agent="5.0 (Macintosh; Intel Mac OS X 10_15_7) AppleWebKit/537.36 (KHTML, like Gecko) Chrome/101.0.0.0 Safari/537.36" etag="NOlzZWqGuPDvrIMGvTja" version="18.1.1" type="github">
  <diagram id="_3z98-8_1vbIs-WnmTtu" name="Page-1">
    <mxGraphModel dx="1056" dy="1854" grid="1" gridSize="10" guides="1" tooltips="1" connect="1" arrows="1" fold="1" page="1" pageScale="1" pageWidth="827" pageHeight="1169" math="0" shadow="0">
      <root>
        <mxCell id="0" />
        <mxCell id="1" parent="0" />
        <mxCell id="ksbN6asjOrsVW_XEb6HW-1" value="0001" style="rounded=0;whiteSpace=wrap;html=1;fontSize=16;fillColor=#ffcd28;gradientColor=#ffa500;strokeColor=#d79b00;" vertex="1" parent="1">
          <mxGeometry x="160" y="240" width="80" height="40" as="geometry" />
        </mxCell>
        <mxCell id="ksbN6asjOrsVW_XEb6HW-2" value="1" style="rounded=0;whiteSpace=wrap;html=1;fontSize=16;fillColor=#d5e8d4;gradientColor=#97d077;strokeColor=#82b366;" vertex="1" parent="1">
          <mxGeometry x="240" y="240" width="80" height="40" as="geometry" />
        </mxCell>
        <mxCell id="ksbN6asjOrsVW_XEb6HW-5" value="0002" style="rounded=0;whiteSpace=wrap;html=1;fontSize=16;fillColor=#ffcd28;gradientColor=#ffa500;strokeColor=#d79b00;" vertex="1" parent="1">
          <mxGeometry x="160" y="280" width="80" height="40" as="geometry" />
        </mxCell>
        <mxCell id="ksbN6asjOrsVW_XEb6HW-6" value="2" style="rounded=0;whiteSpace=wrap;html=1;fontSize=16;fillColor=#d5e8d4;gradientColor=#97d077;strokeColor=#82b366;" vertex="1" parent="1">
          <mxGeometry x="240" y="280" width="80" height="40" as="geometry" />
        </mxCell>
        <mxCell id="ksbN6asjOrsVW_XEb6HW-9" value="0001" style="rounded=0;whiteSpace=wrap;html=1;fontSize=16;fillColor=#ffcd28;gradientColor=#ffa500;strokeColor=#d79b00;" vertex="1" parent="1">
          <mxGeometry x="260" y="80" width="80" height="40" as="geometry" />
        </mxCell>
        <mxCell id="ksbN6asjOrsVW_XEb6HW-10" value="0004" style="rounded=0;whiteSpace=wrap;html=1;fontSize=16;fillColor=#ffcd28;gradientColor=#ffa500;strokeColor=#d79b00;" vertex="1" parent="1">
          <mxGeometry x="410" y="80" width="84" height="40" as="geometry" />
        </mxCell>
        <mxCell id="ksbN6asjOrsVW_XEb6HW-11" value="0007" style="rounded=0;whiteSpace=wrap;html=1;fontSize=16;fillColor=#ffcd28;gradientColor=#ffa500;strokeColor=#d79b00;" vertex="1" parent="1">
          <mxGeometry x="570" y="80" width="80" height="40" as="geometry" />
        </mxCell>
        <mxCell id="ksbN6asjOrsVW_XEb6HW-12" style="rounded=0;orthogonalLoop=1;jettySize=auto;html=1;entryX=0;entryY=0.5;entryDx=0;entryDy=0;fontSize=16;exitX=0.5;exitY=1;exitDx=0;exitDy=0;edgeStyle=orthogonalEdgeStyle;" edge="1" parent="1" source="ksbN6asjOrsVW_XEb6HW-13" target="ksbN6asjOrsVW_XEb6HW-17">
          <mxGeometry relative="1" as="geometry">
            <Array as="points">
              <mxPoint x="200" y="380" />
              <mxPoint x="520" y="380" />
              <mxPoint x="520" y="260" />
            </Array>
          </mxGeometry>
        </mxCell>
        <mxCell id="ksbN6asjOrsVW_XEb6HW-13" value="0003" style="rounded=0;whiteSpace=wrap;html=1;fontSize=16;fillColor=#ffcd28;gradientColor=#ffa500;strokeColor=#d79b00;" vertex="1" parent="1">
          <mxGeometry x="160" y="320" width="80" height="40" as="geometry" />
        </mxCell>
        <mxCell id="ksbN6asjOrsVW_XEb6HW-14" value="3" style="rounded=0;whiteSpace=wrap;html=1;fontSize=16;fillColor=#d5e8d4;gradientColor=#97d077;strokeColor=#82b366;" vertex="1" parent="1">
          <mxGeometry x="240" y="320" width="80" height="40" as="geometry" />
        </mxCell>
        <mxCell id="ksbN6asjOrsVW_XEb6HW-17" value="0004" style="rounded=0;whiteSpace=wrap;html=1;fontSize=16;fillColor=#ffcd28;gradientColor=#ffa500;strokeColor=#d79b00;" vertex="1" parent="1">
          <mxGeometry x="560" y="240" width="80" height="40" as="geometry" />
        </mxCell>
        <mxCell id="ksbN6asjOrsVW_XEb6HW-18" value="4" style="rounded=0;whiteSpace=wrap;html=1;fontSize=16;fillColor=#d5e8d4;gradientColor=#97d077;strokeColor=#82b366;" vertex="1" parent="1">
          <mxGeometry x="640" y="240" width="80" height="40" as="geometry" />
        </mxCell>
        <mxCell id="ksbN6asjOrsVW_XEb6HW-21" value="0005" style="rounded=0;whiteSpace=wrap;html=1;fontSize=16;fillColor=#ffcd28;gradientColor=#ffa500;strokeColor=#d79b00;" vertex="1" parent="1">
          <mxGeometry x="560" y="280" width="80" height="40" as="geometry" />
        </mxCell>
        <mxCell id="ksbN6asjOrsVW_XEb6HW-22" value="5" style="rounded=0;whiteSpace=wrap;html=1;fontSize=16;fillColor=#d5e8d4;gradientColor=#97d077;strokeColor=#82b366;" vertex="1" parent="1">
          <mxGeometry x="640" y="280" width="80" height="40" as="geometry" />
        </mxCell>
        <mxCell id="ksbN6asjOrsVW_XEb6HW-25" style="edgeStyle=orthogonalEdgeStyle;rounded=0;orthogonalLoop=1;jettySize=auto;html=1;entryX=0;entryY=0.5;entryDx=0;entryDy=0;fontSize=16;" edge="1" parent="1" source="ksbN6asjOrsVW_XEb6HW-26" target="ksbN6asjOrsVW_XEb6HW-30">
          <mxGeometry relative="1" as="geometry">
            <Array as="points">
              <mxPoint x="600" y="380" />
              <mxPoint x="930" y="380" />
              <mxPoint x="930" y="260" />
            </Array>
          </mxGeometry>
        </mxCell>
        <mxCell id="ksbN6asjOrsVW_XEb6HW-26" value="0006" style="rounded=0;whiteSpace=wrap;html=1;fontSize=16;fillColor=#ffcd28;gradientColor=#ffa500;strokeColor=#d79b00;" vertex="1" parent="1">
          <mxGeometry x="560" y="320" width="80" height="40" as="geometry" />
        </mxCell>
        <mxCell id="ksbN6asjOrsVW_XEb6HW-27" value="6" style="rounded=0;whiteSpace=wrap;html=1;fontSize=16;fillColor=#d5e8d4;gradientColor=#97d077;strokeColor=#82b366;" vertex="1" parent="1">
          <mxGeometry x="640" y="320" width="80" height="40" as="geometry" />
        </mxCell>
        <mxCell id="ksbN6asjOrsVW_XEb6HW-30" value="0007" style="rounded=0;whiteSpace=wrap;html=1;fontSize=16;fillColor=#ffcd28;gradientColor=#ffa500;strokeColor=#d79b00;" vertex="1" parent="1">
          <mxGeometry x="960" y="240" width="80" height="40" as="geometry" />
        </mxCell>
        <mxCell id="ksbN6asjOrsVW_XEb6HW-31" value="7" style="rounded=0;whiteSpace=wrap;html=1;fontSize=16;fillColor=#d5e8d4;gradientColor=#97d077;strokeColor=#82b366;" vertex="1" parent="1">
          <mxGeometry x="1040" y="240" width="80" height="40" as="geometry" />
        </mxCell>
        <mxCell id="ksbN6asjOrsVW_XEb6HW-34" value="0008" style="rounded=0;whiteSpace=wrap;html=1;fontSize=16;fillColor=#ffcd28;gradientColor=#ffa500;strokeColor=#d79b00;" vertex="1" parent="1">
          <mxGeometry x="960" y="280" width="80" height="40" as="geometry" />
        </mxCell>
        <mxCell id="ksbN6asjOrsVW_XEb6HW-35" value="8" style="rounded=0;whiteSpace=wrap;html=1;fontSize=16;fillColor=#d5e8d4;gradientColor=#97d077;strokeColor=#82b366;" vertex="1" parent="1">
          <mxGeometry x="1040" y="280" width="80" height="40" as="geometry" />
        </mxCell>
        <mxCell id="ksbN6asjOrsVW_XEb6HW-38" value="0009" style="rounded=0;whiteSpace=wrap;html=1;fontSize=16;fillColor=#ffcd28;gradientColor=#ffa500;strokeColor=#d79b00;" vertex="1" parent="1">
          <mxGeometry x="960" y="320" width="80" height="40" as="geometry" />
        </mxCell>
        <mxCell id="ksbN6asjOrsVW_XEb6HW-39" value="9" style="rounded=0;whiteSpace=wrap;html=1;fontSize=16;fillColor=#d5e8d4;gradientColor=#97d077;strokeColor=#82b366;" vertex="1" parent="1">
          <mxGeometry x="1040" y="320" width="80" height="40" as="geometry" />
        </mxCell>
        <mxCell id="ksbN6asjOrsVW_XEb6HW-42" style="edgeStyle=none;rounded=0;orthogonalLoop=1;jettySize=auto;html=1;entryX=0.5;entryY=0;entryDx=0;entryDy=0;fontSize=16;" edge="1" parent="1" source="ksbN6asjOrsVW_XEb6HW-43" target="ksbN6asjOrsVW_XEb6HW-1">
          <mxGeometry relative="1" as="geometry" />
        </mxCell>
        <mxCell id="ksbN6asjOrsVW_XEb6HW-43" value="" style="rounded=0;whiteSpace=wrap;html=1;fontSize=16;" vertex="1" parent="1">
          <mxGeometry x="340" y="80" width="80" height="40" as="geometry" />
        </mxCell>
        <mxCell id="ksbN6asjOrsVW_XEb6HW-44" style="edgeStyle=none;rounded=0;orthogonalLoop=1;jettySize=auto;html=1;entryX=0.5;entryY=0;entryDx=0;entryDy=0;fontSize=16;" edge="1" parent="1" source="ksbN6asjOrsVW_XEb6HW-45" target="ksbN6asjOrsVW_XEb6HW-17">
          <mxGeometry relative="1" as="geometry" />
        </mxCell>
        <mxCell id="ksbN6asjOrsVW_XEb6HW-45" value="" style="rounded=0;whiteSpace=wrap;html=1;fontSize=16;" vertex="1" parent="1">
          <mxGeometry x="494" y="80" width="80" height="40" as="geometry" />
        </mxCell>
        <mxCell id="ksbN6asjOrsVW_XEb6HW-46" style="edgeStyle=none;rounded=0;orthogonalLoop=1;jettySize=auto;html=1;entryX=0.5;entryY=0;entryDx=0;entryDy=0;fontSize=16;exitX=0.5;exitY=1;exitDx=0;exitDy=0;" edge="1" parent="1" source="ksbN6asjOrsVW_XEb6HW-47" target="ksbN6asjOrsVW_XEb6HW-30">
          <mxGeometry relative="1" as="geometry" />
        </mxCell>
        <mxCell id="ksbN6asjOrsVW_XEb6HW-47" value="" style="rounded=0;whiteSpace=wrap;html=1;fontSize=16;" vertex="1" parent="1">
          <mxGeometry x="650" y="80" width="80" height="40" as="geometry" />
        </mxCell>
        <mxCell id="ksbN6asjOrsVW_XEb6HW-48" value="....." style="rounded=0;whiteSpace=wrap;html=1;fontSize=16;" vertex="1" parent="1">
          <mxGeometry x="850" y="80" width="160" height="40" as="geometry" />
        </mxCell>
        <mxCell id="ksbN6asjOrsVW_XEb6HW-49" value="....." style="rounded=0;whiteSpace=wrap;html=1;fontSize=16;" vertex="1" parent="1">
          <mxGeometry x="1140" y="80" width="160" height="40" as="geometry" />
        </mxCell>
        <mxCell id="ksbN6asjOrsVW_XEb6HW-50" value="0001" style="rounded=0;whiteSpace=wrap;html=1;fontSize=16;fillColor=#ffcd28;gradientColor=#ffa500;strokeColor=#d79b00;" vertex="1" parent="1">
          <mxGeometry x="494" y="-110" width="80" height="40" as="geometry" />
        </mxCell>
        <mxCell id="ksbN6asjOrsVW_XEb6HW-51" value="0010" style="rounded=0;whiteSpace=wrap;html=1;fontSize=16;fillColor=#ffcd28;gradientColor=#ffa500;strokeColor=#d79b00;" vertex="1" parent="1">
          <mxGeometry x="644" y="-110" width="84" height="40" as="geometry" />
        </mxCell>
        <mxCell id="ksbN6asjOrsVW_XEb6HW-52" value="0020" style="rounded=0;whiteSpace=wrap;html=1;fontSize=16;fillColor=#ffcd28;gradientColor=#ffa500;strokeColor=#d79b00;" vertex="1" parent="1">
          <mxGeometry x="804" y="-110" width="80" height="40" as="geometry" />
        </mxCell>
        <mxCell id="ksbN6asjOrsVW_XEb6HW-53" style="rounded=0;orthogonalLoop=1;jettySize=auto;html=1;entryX=0.5;entryY=0;entryDx=0;entryDy=0;fontSize=16;exitX=0.5;exitY=1;exitDx=0;exitDy=0;" edge="1" parent="1" source="ksbN6asjOrsVW_XEb6HW-54" target="ksbN6asjOrsVW_XEb6HW-43">
          <mxGeometry relative="1" as="geometry" />
        </mxCell>
        <mxCell id="ksbN6asjOrsVW_XEb6HW-54" value="" style="rounded=0;whiteSpace=wrap;html=1;fontSize=16;" vertex="1" parent="1">
          <mxGeometry x="574" y="-110" width="80" height="40" as="geometry" />
        </mxCell>
        <mxCell id="ksbN6asjOrsVW_XEb6HW-55" style="edgeStyle=none;rounded=0;orthogonalLoop=1;jettySize=auto;html=1;entryX=0.5;entryY=0;entryDx=0;entryDy=0;fontSize=16;" edge="1" parent="1" source="ksbN6asjOrsVW_XEb6HW-56" target="ksbN6asjOrsVW_XEb6HW-48">
          <mxGeometry relative="1" as="geometry" />
        </mxCell>
        <mxCell id="ksbN6asjOrsVW_XEb6HW-56" value="" style="rounded=0;whiteSpace=wrap;html=1;fontSize=16;" vertex="1" parent="1">
          <mxGeometry x="728" y="-110" width="80" height="40" as="geometry" />
        </mxCell>
        <mxCell id="ksbN6asjOrsVW_XEb6HW-57" style="edgeStyle=none;rounded=0;orthogonalLoop=1;jettySize=auto;html=1;entryX=0.5;entryY=0;entryDx=0;entryDy=0;fontSize=16;" edge="1" parent="1" source="ksbN6asjOrsVW_XEb6HW-58" target="ksbN6asjOrsVW_XEb6HW-49">
          <mxGeometry relative="1" as="geometry" />
        </mxCell>
        <mxCell id="ksbN6asjOrsVW_XEb6HW-58" value="" style="rounded=0;whiteSpace=wrap;html=1;fontSize=16;" vertex="1" parent="1">
          <mxGeometry x="884" y="-110" width="80" height="40" as="geometry" />
        </mxCell>
        <mxCell id="ksbN6asjOrsVW_XEb6HW-59" value="根节点" style="text;html=1;align=center;verticalAlign=middle;resizable=0;points=[];autosize=1;strokeColor=#36393d;fillColor=#ffff88;fontSize=16;" vertex="1" parent="1">
          <mxGeometry x="420" y="-100" width="60" height="20" as="geometry" />
        </mxCell>
        <mxCell id="ksbN6asjOrsVW_XEb6HW-60" value="叶子节点" style="text;html=1;align=center;verticalAlign=middle;resizable=0;points=[];autosize=1;strokeColor=#36393d;fillColor=#ffff88;fontSize=16;" vertex="1" parent="1">
          <mxGeometry x="70" y="250" width="80" height="20" as="geometry" />
        </mxCell>
      </root>
    </mxGraphModel>
  </diagram>
</mxfile>
